<svg width="652" height="280" viewBox="0 0 652 280" fill="none" xmlns="http://www.w3.org/2000/svg">
<path d="M49.136 42.88H52.664V94H49.136V42.88ZM68.9641 94V41.728H69.0361L94.2361 77.512L92.7241 77.296L117.852 41.728H117.924V94H114.468V49.864L114.756 51.592L93.4441 81.616H93.3001L71.8441 51.592L72.4201 50.008V94H68.9641ZM134.214 94V41.728H134.286L159.486 77.512L157.974 77.296L183.102 41.728H183.174V94H179.718V49.864L180.006 51.592L158.694 81.616H158.55L137.094 51.592L137.67 50.008V94H134.214ZM199.464 42.88H231V46.264H202.992V66.568H228.192V69.952H202.992V90.616H232.008V94H199.464V42.88ZM257.113 42.88C259.033 42.88 260.929 43.168 262.801 43.744C264.721 44.272 266.449 45.136 267.985 46.336C269.569 47.488 270.841 48.976 271.801 50.8C272.761 52.624 273.241 54.808 273.241 57.352C273.241 59.272 272.953 61.144 272.377 62.968C271.801 64.744 270.865 66.352 269.569 67.792C268.273 69.232 266.593 70.384 264.529 71.248C262.465 72.112 259.921 72.544 256.897 72.544H248.977V94H245.449V42.88H257.113ZM256.681 69.16C259.225 69.16 261.337 68.8 263.017 68.08C264.697 67.36 266.017 66.424 266.977 65.272C267.937 64.12 268.609 62.872 268.993 61.528C269.425 60.136 269.641 58.792 269.641 57.496C269.641 55.96 269.353 54.52 268.777 53.176C268.249 51.832 267.457 50.656 266.401 49.648C265.345 48.592 264.073 47.776 262.585 47.2C261.097 46.576 259.441 46.264 257.617 46.264H248.977V69.16H256.681ZM264.025 70.744L278.209 94H274.105L259.849 70.816L264.025 70.744ZM316.571 48.64C315.083 47.92 313.259 47.248 311.099 46.624C308.939 46 306.779 45.688 304.619 45.688C301.259 45.688 298.571 46.528 296.555 48.208C294.539 49.888 293.531 52 293.531 54.544C293.531 56.464 294.107 58.072 295.259 59.368C296.411 60.616 297.923 61.696 299.795 62.608C301.667 63.472 303.659 64.312 305.771 65.128C307.451 65.752 309.107 66.448 310.739 67.216C312.419 67.984 313.931 68.92 315.275 70.024C316.619 71.128 317.675 72.496 318.443 74.128C319.259 75.76 319.667 77.776 319.667 80.176C319.667 83.008 318.995 85.528 317.651 87.736C316.307 89.896 314.435 91.576 312.035 92.776C309.635 93.976 306.851 94.576 303.683 94.576C301.139 94.576 298.811 94.264 296.699 93.64C294.635 93.016 292.811 92.296 291.227 91.48C289.691 90.616 288.467 89.896 287.555 89.32L289.211 86.44C290.267 87.208 291.539 87.976 293.027 88.744C294.563 89.512 296.219 90.16 297.995 90.688C299.771 91.216 301.547 91.48 303.323 91.48C305.387 91.48 307.379 91.072 309.299 90.256C311.267 89.44 312.875 88.216 314.123 86.584C315.419 84.904 316.067 82.792 316.067 80.248C316.067 77.8 315.467 75.832 314.267 74.344C313.067 72.808 311.531 71.56 309.659 70.6C307.787 69.64 305.795 68.776 303.683 68.008C302.051 67.384 300.419 66.736 298.787 66.064C297.155 65.344 295.667 64.504 294.323 63.544C292.979 62.536 291.899 61.336 291.083 59.944C290.315 58.552 289.931 56.872 289.931 54.904C289.931 52.456 290.555 50.32 291.803 48.496C293.051 46.672 294.731 45.256 296.843 44.248C299.003 43.192 301.451 42.64 304.187 42.592C306.587 42.592 309.011 42.904 311.459 43.528C313.955 44.152 316.115 44.944 317.939 45.904L316.571 48.64ZM332.847 42.88H336.375V94H332.847V42.88ZM352.171 42.88L371.035 90.76L369.091 90.472L387.523 42.88H391.555L369.811 96.376L348.067 42.88H352.171ZM403.23 42.88H434.766V46.264H406.758V66.568H431.958V69.952H406.758V90.616H435.774V94H403.23V42.88ZM49.136 112.88H80.672V116.264H52.664V136.568H77.864V139.952H52.664V160.616H81.68V164H49.136V112.88ZM90.8004 112.88H95.1924L128.456 164H123.992L90.8004 112.88ZM90.0804 164L107.36 137L109.232 140.096L94.4004 164H90.0804ZM109.016 135.848L123.344 112.88H127.52L111.032 138.656L109.016 135.848ZM151.577 112.88C154.745 112.88 157.505 113.432 159.857 114.536C162.257 115.592 164.105 117.2 165.401 119.36C166.745 121.472 167.417 124.136 167.417 127.352C167.417 129.272 167.105 131.144 166.481 132.968C165.905 134.744 164.945 136.352 163.601 137.792C162.305 139.232 160.625 140.384 158.561 141.248C156.545 142.112 154.097 142.544 151.217 142.544H143.297V164H139.769V112.88H151.577ZM151.217 139.16C153.713 139.16 155.777 138.776 157.409 138.008C159.089 137.192 160.385 136.184 161.297 134.984C162.257 133.736 162.929 132.44 163.313 131.096C163.745 129.752 163.961 128.504 163.961 127.352C163.961 125.72 163.697 124.232 163.169 122.888C162.641 121.544 161.849 120.392 160.793 119.432C159.785 118.424 158.537 117.656 157.049 117.128C155.561 116.552 153.857 116.264 151.937 116.264H143.297V139.16H151.217ZM179.636 112.88H211.172V116.264H183.164V136.568H208.364V139.952H183.164V160.616H212.18V164H179.636V112.88ZM237.284 112.88C239.204 112.88 241.1 113.168 242.972 113.744C244.892 114.272 246.62 115.136 248.156 116.336C249.74 117.488 251.012 118.976 251.972 120.8C252.932 122.624 253.412 124.808 253.412 127.352C253.412 129.272 253.124 131.144 252.548 132.968C251.972 134.744 251.036 136.352 249.74 137.792C248.444 139.232 246.764 140.384 244.7 141.248C242.636 142.112 240.092 142.544 237.068 142.544H229.148V164H225.62V112.88H237.284ZM236.852 139.16C239.396 139.16 241.508 138.8 243.188 138.08C244.868 137.36 246.188 136.424 247.148 135.272C248.108 134.12 248.78 132.872 249.164 131.528C249.596 130.136 249.812 128.792 249.812 127.496C249.812 125.96 249.524 124.52 248.948 123.176C248.42 121.832 247.628 120.656 246.572 119.648C245.516 118.592 244.244 117.776 242.756 117.2C241.268 116.576 239.612 116.264 237.788 116.264H229.148V139.16H236.852ZM244.196 140.744L258.38 164H254.276L240.02 140.816L244.196 140.744ZM271.183 112.88H274.711V164H271.183V112.88ZM291.011 112.88H322.547V116.264H294.539V136.568H319.739V139.952H294.539V160.616H323.555V164H291.011V112.88ZM379.763 165.224L339.443 119.792L340.379 119.072L340.451 164H336.995V111.8H337.211L377.531 157.592L376.595 157.88L376.523 112.88H379.907V165.224H379.763ZM432.919 160.616C431.815 161.288 430.543 161.936 429.103 162.56C427.663 163.184 426.079 163.664 424.351 164C422.623 164.384 420.751 164.576 418.735 164.576C414.847 164.576 411.319 163.904 408.151 162.56C404.983 161.168 402.271 159.296 400.015 156.944C397.759 154.544 396.007 151.808 394.759 148.736C393.559 145.616 392.959 142.304 392.959 138.8C392.959 135.056 393.607 131.576 394.903 128.36C396.199 125.144 398.023 122.336 400.375 119.936C402.727 117.536 405.463 115.664 408.583 114.32C411.703 112.976 415.087 112.304 418.735 112.304C421.423 112.304 423.943 112.664 426.295 113.384C428.647 114.104 430.783 115.04 432.703 116.192L431.191 119.432C429.511 118.376 427.615 117.488 425.503 116.768C423.391 116.048 421.159 115.688 418.807 115.688C415.783 115.688 412.927 116.288 410.239 117.488C407.551 118.64 405.175 120.272 403.111 122.384C401.095 124.448 399.511 126.872 398.359 129.656C397.207 132.44 396.631 135.44 396.631 138.656C396.631 141.728 397.135 144.632 398.143 147.368C399.199 150.104 400.687 152.504 402.607 154.568C404.575 156.632 406.927 158.264 409.663 159.464C412.399 160.616 415.447 161.192 418.807 161.192C421.303 161.192 423.583 160.856 425.647 160.184C427.759 159.464 429.631 158.576 431.263 157.52L432.919 160.616ZM445.98 112.88H477.516V116.264H449.508V136.568H474.708V139.952H449.508V160.616H478.524V164H445.98V112.88ZM517.524 118.64C516.036 117.92 514.212 117.248 512.052 116.624C509.892 116 507.732 115.688 505.572 115.688C502.212 115.688 499.524 116.528 497.508 118.208C495.492 119.888 494.484 122 494.484 124.544C494.484 126.464 495.06 128.072 496.212 129.368C497.364 130.616 498.876 131.696 500.748 132.608C502.62 133.472 504.612 134.312 506.724 135.128C508.404 135.752 510.06 136.448 511.692 137.216C513.372 137.984 514.884 138.92 516.228 140.024C517.572 141.128 518.628 142.496 519.396 144.128C520.212 145.76 520.62 147.776 520.62 150.176C520.62 153.008 519.948 155.528 518.604 157.736C517.26 159.896 515.388 161.576 512.988 162.776C510.588 163.976 507.804 164.576 504.636 164.576C502.092 164.576 499.764 164.264 497.652 163.64C495.588 163.016 493.764 162.296 492.18 161.48C490.644 160.616 489.42 159.896 488.508 159.32L490.164 156.44C491.22 157.208 492.492 157.976 493.98 158.744C495.516 159.512 497.172 160.16 498.948 160.688C500.724 161.216 502.5 161.48 504.276 161.48C506.34 161.48 508.332 161.072 510.252 160.256C512.22 159.44 513.828 158.216 515.076 156.584C516.372 154.904 517.02 152.792 517.02 150.248C517.02 147.8 516.42 145.832 515.22 144.344C514.02 142.808 512.484 141.56 510.612 140.6C508.74 139.64 506.748 138.776 504.636 138.008C503.004 137.384 501.372 136.736 499.74 136.064C498.108 135.344 496.62 134.504 495.276 133.544C493.932 132.536 492.852 131.336 492.036 129.944C491.268 128.552 490.884 126.872 490.884 124.904C490.884 122.456 491.508 120.32 492.756 118.496C494.004 116.672 495.684 115.256 497.796 114.248C499.956 113.192 502.404 112.64 505.14 112.592C507.54 112.592 509.964 112.904 512.412 113.528C514.908 114.152 517.068 114.944 518.892 115.904L517.524 118.64ZM45.032 182.88H78.512V186.264H63.464V234H59.936V186.264H45.032V182.88ZM128.563 182.88V234H125.035V209.952H94.2187V234H90.6907V182.88H94.2187V206.64H125.035V182.88H128.563ZM140.367 234L161.967 180.648H162.255L183.855 234H179.895L161.103 186.264L163.551 184.896L143.895 234H140.367ZM150.807 213.768H173.487L174.495 217.08H149.943L150.807 213.768ZM187.766 182.88H221.246V186.264H206.198V234H202.67V186.264H187.766V182.88ZM255.503 234V182.88H268.103C273.047 182.88 277.247 183.672 280.703 185.256C284.207 186.792 287.039 188.832 289.199 191.376C291.359 193.92 292.943 196.704 293.951 199.728C294.959 202.752 295.463 205.752 295.463 208.728C295.463 212.616 294.791 216.12 293.447 219.24C292.103 222.312 290.255 224.952 287.903 227.16C285.599 229.368 282.959 231.072 279.983 232.272C277.007 233.424 273.863 234 270.551 234H255.503ZM259.031 230.616H269.615C272.687 230.616 275.567 230.112 278.255 229.104C280.943 228.096 283.295 226.632 285.311 224.712C287.375 222.792 288.983 220.488 290.135 217.8C291.287 215.064 291.863 211.968 291.863 208.512C291.863 205.584 291.359 202.8 290.351 200.16C289.391 197.472 287.927 195.096 285.959 193.032C283.991 190.968 281.567 189.336 278.687 188.136C275.807 186.936 272.447 186.336 268.607 186.336H259.031V230.616ZM308.519 182.88H340.055V186.264H312.047V206.568H337.247V209.952H312.047V230.616H341.063V234H308.519V182.88ZM354.503 182.88H358.031V230.616H386.039V234H354.503V182.88ZM397.886 182.88H401.414V234H397.886V182.88ZM417.21 182.88L436.074 230.76L434.13 230.472L452.562 182.88H456.594L434.85 236.376L413.106 182.88H417.21ZM468.269 182.88H499.805V186.264H471.797V206.568H496.997V209.952H471.797V230.616H500.813V234H468.269V182.88ZM525.917 182.88C527.837 182.88 529.733 183.168 531.605 183.744C533.525 184.272 535.253 185.136 536.789 186.336C538.373 187.488 539.645 188.976 540.605 190.8C541.565 192.624 542.045 194.808 542.045 197.352C542.045 199.272 541.757 201.144 541.181 202.968C540.605 204.744 539.669 206.352 538.373 207.792C537.077 209.232 535.397 210.384 533.333 211.248C531.269 212.112 528.725 212.544 525.701 212.544H517.781V234H514.253V182.88H525.917ZM525.485 209.16C528.029 209.16 530.141 208.8 531.821 208.08C533.501 207.36 534.821 206.424 535.781 205.272C536.741 204.12 537.413 202.872 537.797 201.528C538.229 200.136 538.445 198.792 538.445 197.496C538.445 195.96 538.157 194.52 537.581 193.176C537.053 191.832 536.261 190.656 535.205 189.648C534.149 188.592 532.877 187.776 531.389 187.2C529.901 186.576 528.245 186.264 526.421 186.264H517.781V209.16H525.485ZM532.829 210.744L547.013 234H542.909L528.653 210.816L532.829 210.744Z" fill="white"/>
<rect x="1" y="1" width="650" height="278" stroke="white" stroke-width="2"/>
</svg>
