<svg xmlns="http://www.w3.org/2000/svg" width="652" height="280" fill="none"><path fill="#fff" d="M49.136 42.88h3.528V94h-3.528V42.88ZM68.964 94V41.728h.072l25.2 35.784-1.512-.216 25.128-35.568h.072V94h-3.456V49.864l.288 1.728-21.312 30.024H93.3L71.844 51.592l.576-1.584V94h-3.456Zm65.25 0V41.728h.072l25.2 35.784-1.512-.216 25.128-35.568h.072V94h-3.456V49.864l.288 1.728-21.312 30.024h-.144l-21.456-30.024.576-1.584V94h-3.456Zm65.25-51.12H231v3.384h-28.008v20.304h25.2v3.384h-25.2v20.664h29.016V94h-32.544V42.88Zm57.649 0c1.92 0 3.816.288 5.688.864a14.634 14.634 0 0 1 5.184 2.592c1.584 1.152 2.856 2.64 3.816 4.464.96 1.824 1.44 4.008 1.44 6.552 0 1.92-.288 3.792-.864 5.616-.576 1.776-1.512 3.384-2.808 4.824-1.296 1.44-2.976 2.592-5.04 3.456-2.064.864-4.608 1.296-7.632 1.296h-7.92V94h-3.528V42.88h11.664Zm-.432 26.28c2.544 0 4.656-.36 6.336-1.08 1.68-.72 3-1.656 3.96-2.808s1.632-2.4 2.016-3.744c.432-1.392.648-2.736.648-4.032 0-1.536-.288-2.976-.864-4.32a9.757 9.757 0 0 0-2.376-3.528c-1.056-1.056-2.328-1.872-3.816-2.448-1.488-.624-3.144-.936-4.968-.936h-8.64V69.16h7.704Zm7.344 1.584L278.209 94h-4.104l-14.256-23.184 4.176-.072Zm52.546-22.104c-1.488-.72-3.312-1.392-5.472-2.016a23.25 23.25 0 0 0-6.48-.936c-3.36 0-6.048.84-8.064 2.52-2.016 1.68-3.024 3.792-3.024 6.336 0 1.92.576 3.528 1.728 4.824 1.152 1.248 2.664 2.328 4.536 3.24 1.872.864 3.864 1.704 5.976 2.52 1.68.624 3.336 1.32 4.968 2.088a20.592 20.592 0 0 1 4.536 2.808c1.344 1.104 2.4 2.472 3.168 4.104.816 1.632 1.224 3.648 1.224 6.048 0 2.832-.672 5.352-2.016 7.56-1.344 2.16-3.216 3.84-5.616 5.04-2.4 1.2-5.184 1.8-8.352 1.8-2.544 0-4.872-.312-6.984-.936-2.064-.624-3.888-1.344-5.472-2.16a87.506 87.506 0 0 1-3.672-2.16l1.656-2.88c1.056.768 2.328 1.536 3.816 2.304a30.556 30.556 0 0 0 4.968 1.944c1.776.528 3.552.792 5.328.792a15.13 15.13 0 0 0 5.976-1.224c1.968-.816 3.576-2.04 4.824-3.672 1.296-1.68 1.944-3.792 1.944-6.336 0-2.448-.6-4.416-1.8-5.904-1.2-1.536-2.736-2.784-4.608-3.744a52.103 52.103 0 0 0-5.976-2.592 207.35 207.35 0 0 1-4.896-1.944 25.042 25.042 0 0 1-4.464-2.52 12.162 12.162 0 0 1-3.24-3.6c-.768-1.392-1.152-3.072-1.152-5.04 0-2.448.624-4.584 1.872-6.408 1.248-1.824 2.928-3.24 5.04-4.248 2.16-1.056 4.608-1.608 7.344-1.656 2.4 0 4.824.312 7.272.936 2.496.624 4.656 1.416 6.48 2.376l-1.368 2.736Zm16.276-5.76h3.528V94h-3.528V42.88Zm19.324 0 18.864 47.88-1.944-.288 18.432-47.592h4.032l-21.744 53.496-21.744-53.496h4.104Zm51.059 0h31.536v3.384h-28.008v20.304h25.2v3.384h-25.2v20.664h29.016V94H403.23V42.88Zm-354.094 70h31.536v3.384H52.664v20.304h25.2v3.384h-25.2v20.664H81.68V164H49.136v-51.12Zm41.664 0h4.392L128.456 164h-4.464L90.8 112.88ZM90.08 164l17.28-27 1.872 3.096L94.4 164h-4.32Zm18.936-28.152 14.328-22.968h4.176l-16.488 25.776-2.016-2.808Zm42.561-22.968c3.168 0 5.928.552 8.28 1.656 2.4 1.056 4.248 2.664 5.544 4.824 1.344 2.112 2.016 4.776 2.016 7.992 0 1.92-.312 3.792-.936 5.616-.576 1.776-1.536 3.384-2.88 4.824-1.296 1.44-2.976 2.592-5.04 3.456-2.016.864-4.464 1.296-7.344 1.296h-7.92V164h-3.528v-51.12h11.808Zm-.36 26.28c2.496 0 4.56-.384 6.192-1.152 1.68-.816 2.976-1.824 3.888-3.024.96-1.248 1.632-2.544 2.016-3.888.432-1.344.648-2.592.648-3.744 0-1.632-.264-3.12-.792-4.464a9.106 9.106 0 0 0-2.376-3.456c-1.008-1.008-2.256-1.776-3.744-2.304-1.488-.576-3.192-.864-5.112-.864h-8.64v22.896h7.92Zm28.419-26.28h31.536v3.384h-28.008v20.304h25.2v3.384h-25.2v20.664h29.016V164h-32.544v-51.12Zm57.648 0c1.92 0 3.816.288 5.688.864a14.634 14.634 0 0 1 5.184 2.592c1.584 1.152 2.856 2.64 3.816 4.464.96 1.824 1.44 4.008 1.44 6.552 0 1.92-.288 3.792-.864 5.616-.576 1.776-1.512 3.384-2.808 4.824-1.296 1.44-2.976 2.592-5.04 3.456-2.064.864-4.608 1.296-7.632 1.296h-7.92V164h-3.528v-51.12h11.664Zm-.432 26.28c2.544 0 4.656-.36 6.336-1.08 1.68-.72 3-1.656 3.96-2.808s1.632-2.4 2.016-3.744c.432-1.392.648-2.736.648-4.032 0-1.536-.288-2.976-.864-4.32a9.757 9.757 0 0 0-2.376-3.528c-1.056-1.056-2.328-1.872-3.816-2.448-1.488-.624-3.144-.936-4.968-.936h-8.64v22.896h7.704Zm7.344 1.584L258.38 164h-4.104l-14.256-23.184 4.176-.072Zm26.987-27.864h3.528V164h-3.528v-51.12Zm19.828 0h31.536v3.384h-28.008v20.304h25.2v3.384h-25.2v20.664h29.016V164h-32.544v-51.12Zm88.752 52.344-40.32-45.432.936-.72.072 44.928h-3.456v-52.2h.216l40.32 45.792-.936.288-.072-45h3.384v52.344h-.144Zm53.156-4.608c-1.104.672-2.376 1.32-3.816 1.944-1.44.624-3.024 1.104-4.752 1.44-1.728.384-3.6.576-5.616.576-3.888 0-7.416-.672-10.584-2.016-3.168-1.392-5.88-3.264-8.136-5.616a26.37 26.37 0 0 1-5.256-8.208c-1.2-3.12-1.8-6.432-1.8-9.936 0-3.744.648-7.224 1.944-10.44 1.296-3.216 3.12-6.024 5.472-8.424a25.505 25.505 0 0 1 8.208-5.616c3.12-1.344 6.504-2.016 10.152-2.016 2.688 0 5.208.36 7.56 1.08 2.352.72 4.488 1.656 6.408 2.808l-1.512 3.24c-1.68-1.056-3.576-1.944-5.688-2.664-2.112-.72-4.344-1.08-6.696-1.08-3.024 0-5.88.6-8.568 1.8a21.992 21.992 0 0 0-7.128 4.896c-2.016 2.064-3.6 4.488-4.752 7.272-1.152 2.784-1.728 5.784-1.728 9 0 3.072.504 5.976 1.512 8.712 1.056 2.736 2.544 5.136 4.464 7.2 1.968 2.064 4.32 3.696 7.056 4.896 2.736 1.152 5.784 1.728 9.144 1.728 2.496 0 4.776-.336 6.84-1.008 2.112-.72 3.984-1.608 5.616-2.664l1.656 3.096Zm13.061-47.736h31.536v3.384h-28.008v20.304h25.2v3.384h-25.2v20.664h29.016V164H445.98v-51.12Zm71.544 5.76c-1.488-.72-3.312-1.392-5.472-2.016a23.25 23.25 0 0 0-6.48-.936c-3.36 0-6.048.84-8.064 2.52-2.016 1.68-3.024 3.792-3.024 6.336 0 1.92.576 3.528 1.728 4.824 1.152 1.248 2.664 2.328 4.536 3.24 1.872.864 3.864 1.704 5.976 2.52 1.68.624 3.336 1.32 4.968 2.088a20.592 20.592 0 0 1 4.536 2.808c1.344 1.104 2.4 2.472 3.168 4.104.816 1.632 1.224 3.648 1.224 6.048 0 2.832-.672 5.352-2.016 7.56-1.344 2.16-3.216 3.84-5.616 5.04-2.4 1.2-5.184 1.8-8.352 1.8-2.544 0-4.872-.312-6.984-.936-2.064-.624-3.888-1.344-5.472-2.16a87.506 87.506 0 0 1-3.672-2.16l1.656-2.88c1.056.768 2.328 1.536 3.816 2.304a30.556 30.556 0 0 0 4.968 1.944c1.776.528 3.552.792 5.328.792a15.13 15.13 0 0 0 5.976-1.224c1.968-.816 3.576-2.04 4.824-3.672 1.296-1.68 1.944-3.792 1.944-6.336 0-2.448-.6-4.416-1.8-5.904-1.2-1.536-2.736-2.784-4.608-3.744a52.103 52.103 0 0 0-5.976-2.592 207.35 207.35 0 0 1-4.896-1.944 25.042 25.042 0 0 1-4.464-2.52 12.162 12.162 0 0 1-3.24-3.6c-.768-1.392-1.152-3.072-1.152-5.04 0-2.448.624-4.584 1.872-6.408 1.248-1.824 2.928-3.24 5.04-4.248 2.16-1.056 4.608-1.608 7.344-1.656 2.4 0 4.824.312 7.272.936 2.496.624 4.656 1.416 6.48 2.376l-1.368 2.736ZM45.032 182.88h33.48v3.384H63.464V234h-3.528v-47.736H45.032v-3.384Zm83.531 0V234h-3.528v-24.048H94.219V234H90.69v-51.12h3.528v23.76h30.816v-23.76h3.528ZM140.367 234l21.6-53.352h.288l21.6 53.352h-3.96l-18.792-47.736 2.448-1.368L143.895 234h-3.528Zm10.44-20.232h22.68l1.008 3.312h-24.552l.864-3.312Zm36.959-30.888h33.48v3.384h-15.048V234h-3.528v-47.736h-14.904v-3.384ZM255.503 234v-51.12h12.6c4.944 0 9.144.792 12.6 2.376 3.504 1.536 6.336 3.576 8.496 6.12s3.744 5.328 4.752 8.352c1.008 3.024 1.512 6.024 1.512 9 0 3.888-.672 7.392-2.016 10.512-1.344 3.072-3.192 5.712-5.544 7.92a24.68 24.68 0 0 1-7.92 5.112c-2.976 1.152-6.12 1.728-9.432 1.728h-15.048Zm3.528-3.384h10.584c3.072 0 5.952-.504 8.64-1.512 2.688-1.008 5.04-2.472 7.056-4.392 2.064-1.92 3.672-4.224 4.824-6.912 1.152-2.736 1.728-5.832 1.728-9.288 0-2.928-.504-5.712-1.512-8.352a19.932 19.932 0 0 0-4.392-7.128c-1.968-2.064-4.392-3.696-7.272-4.896-2.88-1.2-6.24-1.8-10.08-1.8h-9.576v44.28Zm49.488-47.736h31.536v3.384h-28.008v20.304h25.2v3.384h-25.2v20.664h29.016V234h-32.544v-51.12Zm45.984 0h3.528v47.736h28.008V234h-31.536v-51.12Zm43.383 0h3.528V234h-3.528v-51.12Zm19.324 0 18.864 47.88-1.944-.288 18.432-47.592h4.032l-21.744 53.496-21.744-53.496h4.104Zm51.059 0h31.536v3.384h-28.008v20.304h25.2v3.384h-25.2v20.664h29.016V234h-32.544v-51.12Zm57.648 0c1.92 0 3.816.288 5.688.864a14.634 14.634 0 0 1 5.184 2.592c1.584 1.152 2.856 2.64 3.816 4.464.96 1.824 1.44 4.008 1.44 6.552 0 1.92-.288 3.792-.864 5.616-.576 1.776-1.512 3.384-2.808 4.824-1.296 1.44-2.976 2.592-5.04 3.456-2.064.864-4.608 1.296-7.632 1.296h-7.92V234h-3.528v-51.12h11.664Zm-.432 26.28c2.544 0 4.656-.36 6.336-1.08 1.68-.72 3-1.656 3.96-2.808s1.632-2.4 2.016-3.744c.432-1.392.648-2.736.648-4.032 0-1.536-.288-2.976-.864-4.32a9.757 9.757 0 0 0-2.376-3.528c-1.056-1.056-2.328-1.872-3.816-2.448-1.488-.624-3.144-.936-4.968-.936h-8.64v22.896h7.704Zm7.344 1.584L547.013 234h-4.104l-14.256-23.184 4.176-.072Z"/><path stroke="#fff" stroke-width="2" d="M1 1h650v278H1z"/></svg>